<svg width="203" height="41" viewBox="0 0 203 41" fill="none" xmlns="http://www.w3.org/2000/svg">
<path d="M29.5241 3.32274C31.9539 5.54766 33.1689 8.70939 33.1689 12.8079C33.1689 15.9989 32.4223 18.8094 30.9293 21.2392C29.4363 23.669 27.3138 25.5573 24.5766 26.904C21.8393 28.2506 18.6923 28.924 15.1207 28.924H12.076L12.5152 40.312H0L0.629418 28.4848L0 0.0585505L19.1021 0C23.6251 0 27.0943 1.11246 29.5241 3.32274ZM19.3217 17.8286C19.834 16.8479 20.0975 15.6037 20.0975 14.0668C20.0975 12.2371 19.6583 10.905 18.7947 10.0561C17.9165 9.20707 16.5552 8.73866 14.6815 8.65084L12.442 8.84113L12.1931 19.9804L16.8626 20.2292C17.9896 19.6144 18.7947 18.8094 19.3217 17.8286Z" fill="#F9DB00"/>
<path d="M61.2146 31.1635L61.8441 31.91L61.1561 40.312H36.4624L37.0186 31.0464L36.4624 8.402H61.5952L62.2246 9.20707L61.5367 17.6091L53.1347 17.2285H47.909L47.8505 19.9657H52.8273L58.2432 19.7754L58.8726 20.5805L58.1846 28.9825L52.0808 28.7922H47.6016L47.5431 29.8461L47.6016 31.4709H52.5199L61.2293 31.1635H61.2146Z" fill="#F9DB00"/>
<path d="M90.651 9.20707L90.0216 17.6091L82.9956 17.2285H82.8053L82.5564 29.8608L82.9956 40.312H71.4904L72.0466 31.0464L71.7978 17.2285H71.5489L64.4497 17.6091L63.7617 16.804L64.3911 8.402H90.0216L90.651 9.20707Z" fill="#F9DB00"/>
<path d="M119.077 9.20707L118.448 17.6091L111.422 17.2285H111.232L110.983 29.8608L111.422 40.312H99.9167L100.473 31.0464L100.224 17.2285H99.9752L92.876 17.6091L92.188 16.804L92.8174 8.402H118.448L119.077 9.20707Z" fill="#F9DB00"/>
<path d="M151.748 37.648L151.558 38.8922C147.693 40.0193 143.946 40.6926 140.301 40.9414L138.75 39.7558C137.008 35.9793 135.735 33.2274 134.959 31.4855H131.841L132.28 40.3267H120.702L121.258 31.061L120.702 8.41664H137.754C141.619 8.41664 144.605 9.28026 146.713 10.9929C148.835 12.7201 149.889 15.1939 149.889 18.4288C149.889 20.2585 149.421 21.9857 148.484 23.6251C147.547 25.2645 146.23 26.699 144.532 27.9432C147.518 32.1735 149.918 35.4084 151.748 37.648ZM132.207 16.4234L131.958 23.1421L135.383 23.3909C136.218 22.9811 136.803 22.4834 137.154 21.8979C137.506 21.3124 137.681 20.5512 137.681 19.5998C137.681 18.4727 137.374 17.6676 136.744 17.1699C136.115 16.6723 135.061 16.3795 133.568 16.3063L132.192 16.4234H132.207Z" fill="#F9DB00"/>
<path d="M165.185 29.8608L165.683 40.312H154.104L154.661 31.0464L154.104 8.402H165.859L165.171 29.8754L165.185 29.8608Z" fill="#F9DB00"/>
<path d="M198.311 18.8679C201.033 20.9464 202.38 23.9033 202.38 27.709C202.38 31.9393 200.872 35.2035 197.872 37.5309C194.856 39.8436 190.626 41 185.152 41C180.175 41 176.325 39.9315 173.617 37.809C170.895 35.6865 169.548 32.6858 169.548 28.8508C169.548 24.6937 171.056 21.4588 174.056 19.1753C177.057 16.8918 181.302 15.7501 186.776 15.7501C191.753 15.7501 195.603 16.7894 198.311 18.8679ZM183.132 23.0543C182.575 23.2885 182.18 23.7569 181.946 24.4448C181.712 25.1328 181.609 26.216 181.609 27.6651C181.609 29.6558 181.726 31.1196 181.975 32.0564C182.224 33.0079 182.663 33.6519 183.278 34.0032C183.907 34.3545 184.873 34.5302 186.205 34.5302C187.406 34.5302 188.284 34.4131 188.855 34.1789C189.411 33.9447 189.792 33.4909 190.011 32.8029C190.231 32.115 190.319 31.0611 190.319 29.6119C190.319 27.5919 190.202 26.1135 189.982 25.1621C189.748 24.2106 189.323 23.5666 188.679 23.2299C188.035 22.8786 187.054 22.703 185.722 22.703C184.566 22.703 183.702 22.8201 183.146 23.0543H183.132Z" fill="#F9DB00"/>
<path d="M179.677 11.1685C179.677 11.5637 179.618 11.9297 179.53 12.2956C179.442 12.6616 179.325 12.9982 179.15 13.3202C178.974 13.6423 178.769 13.9204 178.52 14.1839C178.271 14.4473 178.008 14.6669 177.7 14.8572C177.393 15.0475 177.056 15.1792 176.705 15.2817C176.354 15.3842 175.973 15.4427 175.563 15.4427C175.154 15.4427 174.802 15.3988 174.451 15.2963C174.1 15.1939 173.778 15.0475 173.47 14.8718C173.163 14.6962 172.885 14.4766 172.636 14.2278C172.387 13.9789 172.182 13.7008 172.006 13.3934C171.831 13.086 171.684 12.764 171.582 12.4127C171.479 12.0614 171.45 11.6955 171.45 11.3149C171.45 10.9343 171.494 10.583 171.582 10.2317C171.67 9.8804 171.802 9.54374 171.963 9.22171C172.138 8.89968 172.343 8.62157 172.577 8.35809C172.812 8.09461 173.09 7.86041 173.382 7.67012C173.675 7.47983 174.012 7.33345 174.363 7.23099C174.714 7.12853 175.08 7.06998 175.461 7.06998C176.09 7.06998 176.647 7.17244 177.174 7.36273C177.686 7.55302 178.14 7.8165 178.491 8.18244C178.857 8.53374 179.135 8.97287 179.325 9.48519C179.516 9.9975 179.633 10.5537 179.633 11.1832L179.677 11.1685Z" fill="#F9DB00"/>
<path d="M191.372 10.2171C191.284 10.5977 191.138 10.949 190.962 11.271C190.787 11.6076 190.582 11.9004 190.333 12.1785C190.084 12.442 189.791 12.6762 189.484 12.8665C189.177 13.0568 188.84 13.2178 188.474 13.3349C188.108 13.452 187.727 13.4959 187.332 13.5105C186.937 13.5252 186.527 13.4813 186.103 13.3934C185.678 13.3056 185.312 13.1739 184.976 12.9982C184.624 12.8226 184.317 12.603 184.039 12.3542C183.761 12.1053 183.512 11.8418 183.307 11.5345C183.102 11.2271 182.941 10.9197 182.824 10.5684C182.707 10.2171 182.619 9.88041 182.604 9.51447C182.575 9.14853 182.619 8.78258 182.707 8.41664C182.795 8.0507 182.912 7.71404 183.087 7.39201C183.263 7.06998 183.468 6.76259 183.717 6.49911C183.966 6.23564 184.244 6.00144 184.566 5.79651C184.873 5.59158 185.21 5.43057 185.561 5.31347C185.912 5.19637 186.293 5.13782 186.688 5.12318C187.083 5.10854 187.479 5.12318 187.888 5.22564C188.547 5.37202 189.118 5.60622 189.616 5.92825C190.113 6.23564 190.523 6.60158 190.831 7.04071C191.138 7.47984 191.328 7.96288 191.431 8.50447C191.533 9.04606 191.519 9.61693 191.372 10.2171Z" fill="#F9DB00"/>
<path d="M202.087 12.4859C201.999 12.8518 201.868 13.2031 201.707 13.5252C201.546 13.8472 201.355 14.1546 201.121 14.4181C200.887 14.6815 200.623 14.9011 200.331 15.106C200.038 15.2963 199.716 15.4573 199.379 15.5744C199.042 15.6915 198.691 15.7355 198.311 15.7647C197.945 15.7794 197.564 15.7647 197.169 15.6623C196.774 15.5598 196.437 15.4573 196.115 15.2817C195.793 15.106 195.515 14.9011 195.251 14.6669C194.988 14.4327 194.768 14.1692 194.578 13.8765C194.388 13.5837 194.241 13.2763 194.139 12.9397C194.036 12.603 193.963 12.2663 193.949 11.915C193.934 11.5637 193.978 11.1978 194.066 10.8465C194.154 10.4952 194.271 10.1585 194.432 9.83649C194.593 9.51446 194.798 9.22171 195.032 8.95823C195.266 8.69475 195.529 8.46055 195.822 8.27026C196.115 8.06534 196.422 7.90432 196.759 7.78722C197.096 7.67012 197.447 7.61157 197.798 7.58229C198.164 7.55302 198.53 7.58229 198.911 7.67012C199.526 7.80186 200.052 8.03606 200.506 8.32881C200.96 8.62157 201.341 8.97287 201.619 9.39736C201.897 9.82185 202.072 10.2903 202.16 10.8172C202.248 11.3442 202.219 11.9004 202.087 12.5005V12.4859Z" fill="#F9DB00"/>
<path d="M183.131 23.0543C182.575 23.2885 182.18 23.7569 181.946 24.4448C181.711 25.1328 181.609 26.216 181.609 27.6651C181.609 29.6558 181.726 31.1196 181.975 32.0564C182.224 33.0079 182.663 33.6519 183.278 34.0032C183.907 34.3545 184.873 34.5302 186.205 34.5302C187.405 34.5302 188.284 34.4131 188.855 34.1789C189.411 33.9447 189.791 33.4909 190.011 32.8029C190.23 32.115 190.318 31.0611 190.318 29.6119C190.318 27.5919 190.201 26.1135 189.982 25.1621C189.747 24.2106 189.323 23.5666 188.679 23.2299C188.035 22.8786 187.054 22.703 185.722 22.703C184.566 22.703 183.702 22.8201 183.146 23.0543H183.131Z" fill="#FFFFF8"/>
</svg>
