<svg width="21" height="22" viewBox="0 0 21 22" fill="none" xmlns="http://www.w3.org/2000/svg">
<path d="M8.97858 5.506C9.14782 5.54479 9.32617 5.49724 9.44801 5.37279C9.56986 5.24833 9.61634 5.06609 9.57843 4.89329C9.42653 4.25951 8.86699 2.13727 8.29243 1.5504C7.57661 0.81924 6.41158 0.816195 5.6993 1.54374C4.98707 2.27123 4.98995 3.46123 5.70582 4.19244C6.28978 4.78891 8.35811 5.35086 8.97858 5.506Z" fill="#68C1B0"/>
<path d="M10.7159 4.89324C10.6779 5.06611 10.7245 5.24828 10.8463 5.37274C10.9682 5.4972 11.1466 5.54467 11.3158 5.50595C11.9363 5.35079 14.014 4.77926 14.5885 4.19239C15.3044 3.46123 15.3073 2.27123 14.5951 1.54369C13.8828 0.816197 12.7178 0.819139 12.0019 1.55035C11.418 2.14682 10.8678 4.25948 10.7159 4.89324Z" fill="#68C1B0"/>
<path d="M1 7.04187C1 6.65628 1.30603 6.34369 1.68353 6.34369H19.1137C19.4912 6.34369 19.7972 6.65628 19.7972 7.04187V10.5328C19.7972 10.9184 19.4912 11.231 19.1137 11.231H1.68353C1.30603 11.231 1 10.9184 1 10.5328V7.04187Z" fill="#68C1B0"/>
<path d="M2.70884 19.6091C2.70884 19.9947 3.01486 20.3073 3.39237 20.3073H17.4048C17.7823 20.3073 18.0884 19.9947 18.0884 19.6091V11.231H2.70884V19.6091Z" fill="#68C1B0"/>
<path d="M10.5695 20.3073V6.34369M8.97858 5.506C9.14782 5.54479 9.32617 5.49724 9.44801 5.37279C9.56986 5.24833 9.61634 5.06609 9.57843 4.89329C9.42653 4.25951 8.86699 2.13727 8.29243 1.5504C7.57661 0.81924 6.41158 0.816195 5.6993 1.54374C4.98707 2.27123 4.98995 3.46123 5.70582 4.19244C6.28978 4.78891 8.35811 5.35086 8.97858 5.506ZM10.7159 4.89324C10.6779 5.06611 10.7245 5.24828 10.8463 5.37274C10.9682 5.4972 11.1466 5.54467 11.3158 5.50595C11.9363 5.35079 14.014 4.77926 14.5885 4.19239C15.3044 3.46123 15.3073 2.27123 14.5951 1.54369C13.8828 0.816197 12.7178 0.819139 12.0019 1.55035C11.418 2.14682 10.8678 4.25948 10.7159 4.89324ZM1.68353 11.231H19.1137C19.4912 11.231 19.7972 10.9184 19.7972 10.5328V7.04187C19.7972 6.65628 19.4912 6.34369 19.1137 6.34369H1.68353C1.30603 6.34369 1 6.65628 1 7.04187V10.5328C1 10.9184 1.30603 11.231 1.68353 11.231ZM18.0884 11.231V19.6091C18.0884 19.9947 17.7823 20.3073 17.4048 20.3073H3.39237C3.01486 20.3073 2.70884 19.9947 2.70884 19.6091V11.231H18.0884Z" stroke="white" stroke-width="2" stroke-linecap="round" stroke-linejoin="round"/>
</svg>
