<svg width="20" height="20" viewBox="0 0 20 20" fill="none" xmlns="http://www.w3.org/2000/svg">
<path d="M1.43147 15.9832C1.03359 16.3662 1.02155 16.9993 1.40458 17.3971C1.7876 17.795 2.42065 17.8071 2.81853 17.424L2.125 16.7036L1.43147 15.9832ZM6.625 12.3716L7.31853 11.6511C6.93131 11.2784 6.31869 11.2784 5.93147 11.6511L6.625 12.3716ZM8.875 14.5376L8.18147 15.258C8.56869 15.6308 9.18131 15.6308 9.56853 15.258L8.875 14.5376ZM13.9375 9.66405L14.631 8.94363C14.2438 8.57086 13.6312 8.57086 13.244 8.94363L13.9375 9.66405ZM17.744 14.7165C18.1418 15.0995 18.7749 15.0875 19.1579 14.6896C19.541 14.2917 19.5289 13.6587 19.131 13.2757L18.4375 13.9961L17.744 14.7165ZM2.125 16.7036L2.81853 17.424L7.31853 13.092L6.625 12.3716L5.93147 11.6511L1.43147 15.9832L2.125 16.7036ZM6.625 12.3716L5.93147 13.092L8.18147 15.258L8.875 14.5376L9.56853 13.8172L7.31853 11.6511L6.625 12.3716ZM8.875 14.5376L9.56853 15.258L14.631 10.3845L13.9375 9.66405L13.244 8.94363L8.18147 13.8172L8.875 14.5376ZM13.9375 9.66405L13.244 10.3845L17.744 14.7165L18.4375 13.9961L19.131 13.2757L14.631 8.94363L13.9375 9.66405ZM4.375 1V2H15.625V1V0H4.375V1ZM19 4.24902H18V15.0791H19H20V4.24902H19ZM15.625 18.3281V17.3281H4.375V18.3281V19.3281H15.625V18.3281ZM1 15.0791H2V4.24902H1H0V15.0791H1ZM4.375 18.3281V17.3281C3.02713 17.3281 2 16.2857 2 15.0791H1H0C0 17.4613 1.99495 19.3281 4.375 19.3281V18.3281ZM19 15.0791H18C18 16.2857 16.9729 17.3281 15.625 17.3281V18.3281V19.3281C18.005 19.3281 20 17.4613 20 15.0791H19ZM15.625 1V2C16.9729 2 18 3.04244 18 4.24902H19H20C20 1.86684 18.005 0 15.625 0V1ZM4.375 1V0C1.99495 0 0 1.86684 0 4.24902H1H2C2 3.04244 3.02713 2 4.375 2V1ZM7.75 5.87353H6.75C6.75 6.18292 6.47839 6.49804 6.0625 6.49804V7.49804V8.49804C7.51057 8.49804 8.75 7.35852 8.75 5.87353H7.75ZM6.0625 7.49804V6.49804C5.64661 6.49804 5.375 6.18292 5.375 5.87353H4.375H3.375C3.375 7.35852 4.61443 8.49804 6.0625 8.49804V7.49804ZM4.375 5.87353H5.375C5.375 5.56414 5.64661 5.24902 6.0625 5.24902V4.24902V3.24902C4.61443 3.24902 3.375 4.38854 3.375 5.87353H4.375ZM6.0625 4.24902V5.24902C6.47839 5.24902 6.75 5.56414 6.75 5.87353H7.75H8.75C8.75 4.38854 7.51057 3.24902 6.0625 3.24902V4.24902Z" fill="#424242"/>
</svg>
