<svg width="18" height="21" viewBox="0 0 18 21" fill="none" xmlns="http://www.w3.org/2000/svg">
<path d="M1.50715 17.1875H16.4929C16.9092 17.1875 17.1453 16.6341 16.9002 16.3171C16.3324 15.583 15.7809 14.5008 15.7809 13.1959L15.8053 11.4109C15.8053 7.87026 12.7583 5 8.99951 5C5.29532 5 2.29247 7.82859 2.29247 11.3178L2.26806 13.1959C2.26806 14.4919 1.69687 15.5682 1.10509 16.302C0.850052 16.6183 1.08553 17.1875 1.50715 17.1875Z" fill="#F9DB00"/>
<path d="M11.1328 3C11.1328 4.10457 10.1777 5 8.99951 5C7.8213 5 6.86618 4.10457 6.86618 3C6.86618 1.89543 7.8213 1 8.99951 1C10.1777 1 11.1328 1.89543 11.1328 3Z" fill="#F9DB00"/>
<path d="M1.10509 16.302L0.326667 15.6743H0.326667L1.10509 16.302ZM2.26806 13.1959L1.26806 13.1829V13.1959H2.26806ZM2.29247 11.3178L3.29247 11.3308V11.3178H2.29247ZM16.9002 16.3171L17.6912 15.7054L17.6912 15.7054L16.9002 16.3171ZM15.7809 13.1959L14.7809 13.1822V13.1959H15.7809ZM15.8053 11.4109L16.8053 11.4246V11.4109H15.8053ZM1.10509 16.302L1.8835 16.9298C2.56738 16.0818 3.26806 14.7905 3.26806 13.1959H2.26806H1.26806C1.26806 14.1934 0.826362 15.0547 0.326667 15.6743L1.10509 16.302ZM2.26806 13.1959L3.26798 13.2088L3.29239 11.3308L2.29247 11.3178L1.29256 11.3048L1.26815 13.1829L2.26806 13.1959ZM16.9002 16.3171L17.6912 15.7054C17.2135 15.0876 16.7809 14.2151 16.7809 13.1959H15.7809H14.7809C14.7809 14.7865 15.4513 16.0783 16.1091 16.9289L16.9002 16.3171ZM15.7809 13.1959L16.7808 13.2095L16.8053 11.4246L15.8053 11.4109L14.8054 11.3972L14.781 13.1822L15.7809 13.1959ZM15.8053 11.4109H16.8053C16.8053 7.26249 13.2534 4 8.99951 4V5V6C12.2631 6 14.8053 8.47802 14.8053 11.4109H15.8053ZM16.4929 17.1875V18.1875C17.1898 18.1875 17.6571 17.7227 17.8559 17.283C18.0508 16.8516 18.0913 16.2227 17.6912 15.7054L16.9002 16.3171L16.1091 16.9289C15.9542 16.7285 15.9992 16.5348 16.0333 16.4594C16.0712 16.3756 16.2123 16.1875 16.4929 16.1875V17.1875ZM2.29247 11.3178H3.29247C3.29247 8.43636 5.79044 6 8.99951 6V5V4C4.80019 4 1.29247 7.22083 1.29247 11.3178H2.29247ZM1.50715 17.1875V16.1875C1.79436 16.1875 1.93347 16.3825 1.96827 16.4619C1.99944 16.5331 2.04551 16.7289 1.8835 16.9298L1.10509 16.302L0.326667 15.6743C-0.0903705 16.1914 -0.0540831 16.83 0.136478 17.2648C0.33066 17.7078 0.79832 18.1875 1.50715 18.1875V17.1875ZM16.4929 17.1875V16.1875H1.50715V17.1875V18.1875H16.4929V17.1875ZM12.1995 17.1875H11.1995C11.1995 18.0711 10.3397 19 8.99951 19V20V21C11.1939 21 13.1995 19.4104 13.1995 17.1875H12.1995ZM8.99951 20V19C7.65931 19 6.79951 18.0711 6.79951 17.1875H5.79951H4.79951C4.79951 19.4104 6.80509 21 8.99951 21V20ZM11.1328 3H10.1328C10.1328 3.49247 9.68721 4 8.99951 4V5V6C10.6682 6 12.1328 4.71667 12.1328 3H11.1328ZM8.99951 5V4C8.31181 4 7.86618 3.49247 7.86618 3H6.86618H5.86618C5.86618 4.71667 7.33079 6 8.99951 6V5ZM6.86618 3H7.86618C7.86618 2.50753 8.31181 2 8.99951 2V1V0C7.33079 0 5.86618 1.28333 5.86618 3H6.86618ZM8.99951 1V2C9.68721 2 10.1328 2.50753 10.1328 3H11.1328H12.1328C12.1328 1.28333 10.6682 0 8.99951 0V1Z" fill="#424242"/>
</svg>
